<svg width="41" height="36" viewBox="0 0 41 36" fill="none" xmlns="http://www.w3.org/2000/svg">
<path d="M20.3333 2.16016C10.6225 2.16016 2.73328 9.26048 2.73328 18.0002C2.73328 25.9339 9.2353 32.4998 17.7036 33.6447L18.6223 33.7698V21.288H14.4645V18.7539H18.6223V15.3888C18.6223 13.3165 19.1749 11.9517 20.0895 11.0955C21.0042 10.2392 22.3557 9.80735 24.2364 9.80735C25.7402 9.80735 26.3253 9.88936 26.8817 9.95079V12.025H24.9239C23.813 12.025 22.9016 12.5828 22.4286 13.3258C21.9555 14.0688 21.8083 14.9559 21.8083 15.8598V18.7525H26.7067L26.2708 21.2866H21.8083V33.7895L22.7161 33.6784C31.3047 32.6301 37.9333 26.0115 37.9333 18.0002C37.9333 9.26048 30.044 2.16016 20.3333 2.16016ZM20.3333 3.60016C29.1793 3.60016 36.3333 10.0387 36.3333 18.0002C36.3333 25.0056 30.7619 30.7671 23.4083 32.0641V22.7266H27.6427L28.5723 17.3125H23.4083V15.8598C23.4083 15.1129 23.5601 14.4436 23.8161 14.0416C24.072 13.6396 24.3188 13.465 24.9239 13.465H28.4817V8.64718L27.788 8.56281C27.3081 8.50437 26.2126 8.36734 24.2364 8.36734C22.0739 8.36734 20.2177 8.89751 18.9364 10.097C17.6551 11.2965 17.0223 13.0826 17.0223 15.3887V17.3139H12.8645V22.728H17.0223V32.0191C9.78688 30.6396 4.33328 24.9298 4.33328 18.0002C4.33328 10.0387 11.4872 3.60016 20.3333 3.60016Z" fill="white"/>
</svg>
