<svg width="41" height="36" viewBox="0 0 41 36" fill="none" xmlns="http://www.w3.org/2000/svg">
<path d="M13.5779 2.16016C7.84384 2.16016 3.17786 6.35954 3.17786 11.5202V24.4802C3.17786 29.6408 7.84384 33.8402 13.5779 33.8402H27.9779C33.7119 33.8402 38.3779 29.6408 38.3779 24.4802V11.5202C38.3779 6.35954 33.7119 2.16016 27.9779 2.16016H13.5779ZM13.5779 3.60016H27.9779C32.847 3.60016 36.7779 7.13789 36.7779 11.5202V24.4802C36.7779 28.8624 32.847 32.4002 27.9779 32.4002H13.5779C8.70867 32.4002 4.77786 28.8624 4.77786 24.4802V11.5202C4.77786 7.13789 8.70867 3.60016 13.5779 3.60016ZM30.3779 7.92016C29.4942 7.92016 28.7779 8.56487 28.7779 9.36016C28.7779 10.1554 29.4942 10.8002 30.3779 10.8002C31.2615 10.8002 31.9779 10.1554 31.9779 9.36016C31.9779 8.56487 31.2615 7.92016 30.3779 7.92016ZM20.7779 10.0802C15.9272 10.0802 11.9779 13.6346 11.9779 18.0002C11.9779 22.3657 15.9272 25.9202 20.7779 25.9202C25.6285 25.9202 29.5779 22.3657 29.5779 18.0002C29.5779 13.6346 25.6285 10.0802 20.7779 10.0802ZM20.7779 11.5202C24.7638 11.5202 27.9779 14.4128 27.9779 18.0002C27.9779 21.5875 24.7638 24.4802 20.7779 24.4802C16.7919 24.4802 13.5779 21.5875 13.5779 18.0002C13.5779 14.4128 16.7919 11.5202 20.7779 11.5202Z" fill="white"/>
</svg>
