<svg width="41" height="36" viewBox="0 0 41 36" fill="none" xmlns="http://www.w3.org/2000/svg">
<path d="M20.0774 6.47998C14.7962 6.47998 9.83681 6.83998 7.19619 7.34342C5.43681 7.70342 3.91494 8.78342 3.59619 10.44C3.27744 12.1669 2.95557 14.76 2.95557 18C2.95557 21.24 3.27432 23.76 3.67432 25.56C3.99619 27.1434 5.51494 28.2965 7.27432 28.6565C10.0774 29.16 14.8743 29.52 20.1556 29.52C25.4368 29.52 30.2337 29.16 33.0337 28.6565C34.7962 28.2965 36.3149 27.2165 36.6337 25.56C36.9556 23.76 37.3556 21.1697 37.4337 17.9297C37.4337 14.6897 37.0337 12.0965 36.6337 10.2965C36.3149 8.7131 34.7962 7.55998 33.0337 7.19998C30.2337 6.83998 25.3556 6.47998 20.0774 6.47998ZM20.0774 7.91998C25.8368 7.91998 30.4743 8.3503 32.7149 8.7103C33.9149 8.99998 34.8743 9.71998 35.0337 10.6565C35.5149 12.96 35.8337 15.4097 35.8337 17.9297C35.7556 21.0234 35.3556 23.5434 35.0337 25.3434C34.7962 26.7103 33.1962 27.1434 32.7149 27.2897C29.8337 27.7931 25.0337 28.1503 20.2337 28.1503C15.4337 28.1503 10.5556 27.8634 7.75557 27.2897C6.55557 27 5.59619 26.28 5.43681 25.3434C4.79619 23.3269 4.55557 20.6634 4.55557 18C4.55557 14.6869 4.87744 12.24 5.19619 10.7297C5.43681 9.35999 7.11494 8.92686 7.51494 8.78343C10.1556 8.27999 15.0368 7.91998 20.0774 7.91998ZM15.7556 12.24V23.76L26.9556 18L15.7556 12.24ZM17.3556 14.6897L23.7556 18L17.3556 21.3103V14.6897Z" fill="white"/>
</svg>
