<svg width="20" height="20" viewBox="0 0 20 20" fill="none" xmlns="http://www.w3.org/2000/svg">
<path d="M15.6645 2.5H4.28591C3.38782 2.5 2.6604 3.22323 2.6604 4.11616V15.4293C2.6604 16.3222 3.38782 17.0455 4.28591 17.0455H10.4799V11.4204H8.57565V9.21838H10.4799V7.59818C10.4799 5.7202 11.6349 4.69636 13.3205 4.69636C13.8886 4.69475 14.4559 4.72384 15.0208 4.78121V6.74485H13.8602C12.9418 6.74485 12.763 7.17636 12.763 7.81313V9.21515H14.9574L14.6721 11.4172H12.75V17.0455H15.6645C16.5626 17.0455 17.29 16.3222 17.29 15.4293V4.11616C17.29 3.22323 16.5626 2.5 15.6645 2.5Z" fill="white"/>
</svg>
